<svg width="174" height="174" viewBox="0 0 174 174" fill="none" xmlns="http://www.w3.org/2000/svg">
<circle cx="87" cy="87" r="85" stroke="white" stroke-width="4"/>
<path d="M100.516 90.518C99.0241 89.7721 97.9341 89.3131 97.1595 89.0262C96.6718 88.8541 95.5242 88.3377 95.1226 88.6533C93.8603 89.6861 92.5119 92.6123 91.0775 93.1574C87.5201 92.4689 84.2209 90.0303 81.639 87.5344C80.4914 86.4443 78.3685 83.3459 77.9095 82.5139C77.8234 81.6533 79.3725 80.5057 79.7168 79.8459C81.4955 77.8377 80.1472 76.5754 79.9176 75.7434C79.516 74.8828 78.8275 73.3336 78.2251 72.0713C77.7087 71.2393 77.5938 70.0057 76.6758 69.5467C72.7741 67.5385 70.5365 71.5549 69.6185 73.6492C64.0816 86.9893 97.3602 112.379 104.131 94.8787C104.475 93.3582 104.332 92.7844 103.815 92.0959C102.782 91.3787 101.577 91.0631 100.516 90.518Z" stroke="white" stroke-width="4"/>
</svg>
